{
    "asset" : {
        "generator" : "Khronos glTF Blender I/O v0.9.36",
        "version" : "2.0"
    },
    "scene" : 0,
    "scenes" : [
        {
            "name" : "Scene",
            "nodes" : [
                0,
                1,
                2,
                3,
                4
            ]
        }
    ],
    "nodes" : [
        {
            "name" : "Light",
            "rotation" : [
                0.16907575726509094,
                0.7558803558349609,
                -0.27217137813568115,
                0.570947527885437
            ],
            "translation" : [
                4.076245307922363,
                5.903861999511719,
                -1.0054539442062378
            ]
        },
        {
            "name" : "Camera",
            "rotation" : [
                0.483536034822464,
                0.33687159419059753,
                -0.20870360732078552,
                0.7804827094078064
            ],
            "translation" : [
                7.358891487121582,
                4.958309173583984,
                6.925790786743164
            ]
        },
        {
            "name" : "Light.001",
            "rotation" : [
                0.5232754945755005,
                0.34203392267227173,
                -0.7269423604011536,
                0.284166157245636
            ],
            "translation" : [
                4.076245307922363,
                5.903862476348877,
                -1.0054532289505005
            ]
        },
        {
            "name" : "Camera.001",
            "rotation" : [
                0.8937963247299194,
                0.09062855690717697,
                -0.3857799172401428,
                0.20997287333011627
            ],
            "translation" : [
                7.358891487121582,
                4.958308696746826,
                6.925792217254639
            ]
        },
        {
            "mesh" : 0,
            "name" : "bird_tri",
            "rotation" : [
                0.9830482006072998,
                0.005456294398754835,
                0.17891161143779755,
                -0.039715174585580826
            ]
        }
    ],
    "materials" : [
        {
            "alphaMode" : "BLEND",
            "doubleSided" : true,
            "name" : "Mat.8",
            "pbrMetallicRoughness" : {
                "baseColorFactor" : [
                    0.7300000190734863,
                    0.968500018119812,
                    1,
                    1
                ],
                "metallicFactor" : 1,
                "roughnessFactor" : 0.7642977237701416
            }
        },
        {
            "alphaMode" : "BLEND",
            "doubleSided" : true,
            "name" : "Mat.10",
            "pbrMetallicRoughness" : {
                "baseColorFactor" : [
                    0.5,
                    0.7666666507720947,
                    1,
                    1
                ],
                "metallicFactor" : 1,
                "roughnessFactor" : 0.7642977237701416
            }
        },
        {
            "alphaMode" : "BLEND",
            "doubleSided" : true,
            "name" : "Mat.9",
            "pbrMetallicRoughness" : {
                "baseColorFactor" : [
                    0.524399995803833,
                    0.7403666377067566,
                    0.7599999904632568,
                    1
                ],
                "metallicFactor" : 1,
                "roughnessFactor" : 0.7642977237701416
            }
        },
        {
            "alphaMode" : "BLEND",
            "doubleSided" : true,
            "name" : "Mat.6",
            "pbrMetallicRoughness" : {
                "baseColorFactor" : [
                    1,
                    0.9591666460037231,
                    0.6499999761581421,
                    1
                ],
                "metallicFactor" : 1,
                "roughnessFactor" : 0.7642977237701416
            }
        },
        {
            "alphaMode" : "BLEND",
            "doubleSided" : true,
            "name" : "Mat.11",
            "pbrMetallicRoughness" : {
                "baseColorFactor" : [
                    1,
                    0.9136666655540466,
                    0.25999999046325684,
                    1
                ],
                "metallicFactor" : 1,
                "roughnessFactor" : 0.7642977237701416
            }
        },
        {
            "alphaMode" : "BLEND",
            "doubleSided" : true,
            "name" : "Mat.5",
            "pbrMetallicRoughness" : {
                "baseColorFactor" : [
                    0.996833324432373,
                    1,
                    0.8100000023841858,
                    1
                ],
                "metallicFactor" : 1,
                "roughnessFactor" : 0.7642977237701416
            }
        },
        {
            "alphaMode" : "BLEND",
            "doubleSided" : true,
            "name" : "Default",
            "pbrMetallicRoughness" : {
                "baseColorFactor" : [
                    0.5600000023841858,
                    0.6553333401679993,
                    1,
                    1
                ],
                "metallicFactor" : 1,
                "roughnessFactor" : 0.7642977237701416
            }
        },
        {
            "alphaMode" : "BLEND",
            "doubleSided" : true,
            "name" : "Mat.4",
            "pbrMetallicRoughness" : {
                "baseColorFactor" : [
                    0.9891666769981384,
                    1,
                    0.8700000047683716,
                    1
                ],
                "metallicFactor" : 1,
                "roughnessFactor" : 0.7642977237701416
            }
        },
        {
            "alphaMode" : "BLEND",
            "doubleSided" : true,
            "name" : "Mat.1",
            "pbrMetallicRoughness" : {
                "baseColorFactor" : [
                    0.8899999856948853,
                    0.7692566514015198,
                    0.560699999332428,
                    1
                ],
                "metallicFactor" : 1,
                "roughnessFactor" : 0.7642977237701416
            }
        }
    ],
    "meshes" : [
        {
            "name" : "bird_tri",
            "primitives" : [
                {
                    "attributes" : {
                        "POSITION" : 0,
                        "NORMAL" : 1
                    },
                    "indices" : 2,
                    "material" : 0
                },
                {
                    "attributes" : {
                        "POSITION" : 3,
                        "NORMAL" : 4
                    },
                    "indices" : 5,
                    "material" : 1
                },
                {
                    "attributes" : {
                        "POSITION" : 6,
                        "NORMAL" : 7
                    },
                    "indices" : 8,
                    "material" : 2
                },
                {
                    "attributes" : {
                        "POSITION" : 9,
                        "NORMAL" : 10
                    },
                    "indices" : 11,
                    "material" : 3
                },
                {
                    "attributes" : {
                        "POSITION" : 12,
                        "NORMAL" : 13
                    },
                    "indices" : 14,
                    "material" : 4
                },
                {
                    "attributes" : {
                        "POSITION" : 15,
                        "NORMAL" : 16
                    },
                    "indices" : 11,
                    "material" : 5
                },
                {
                    "attributes" : {
                        "POSITION" : 17,
                        "NORMAL" : 18
                    },
                    "indices" : 19,
                    "material" : 6
                },
                {
                    "attributes" : {
                        "POSITION" : 20,
                        "NORMAL" : 21
                    },
                    "indices" : 22,
                    "material" : 7
                },
                {
                    "attributes" : {
                        "POSITION" : 23,
                        "NORMAL" : 24
                    },
                    "indices" : 25,
                    "material" : 8
                }
            ]
        }
    ],
    "accessors" : [
        {
            "bufferView" : 0,
            "componentType" : 5126,
            "count" : 168,
            "max" : [
                4.763015270233154,
                -2.2997000217437744,
                4.691598892211914
            ],
            "min" : [
                -5.3567705154418945,
                -9.4562349319458,
                -5.148301124572754
            ],
            "type" : "VEC3"
        },
        {
            "bufferView" : 1,
            "componentType" : 5126,
            "count" : 168,
            "type" : "VEC3"
        },
        {
            "bufferView" : 2,
            "componentType" : 5123,
            "count" : 168,
            "type" : "SCALAR"
        },
        {
            "bufferView" : 3,
            "componentType" : 5126,
            "count" : 198,
            "max" : [
                8.553208351135254,
                -2.135699987411499,
                7.861098766326904
            ],
            "min" : [
                -8.98530387878418,
                -12.750219345092773,
                -4.53504753112793
            ],
            "type" : "VEC3"
        },
        {
            "bufferView" : 4,
            "componentType" : 5126,
            "count" : 198,
            "type" : "VEC3"
        },
        {
            "bufferView" : 5,
            "componentType" : 5123,
            "count" : 198,
            "type" : "SCALAR"
        },
        {
            "bufferView" : 6,
            "componentType" : 5126,
            "count" : 51,
            "max" : [
                8.553208351135254,
                -2.787400007247925,
                7.779098987579346
            ],
            "min" : [
                -8.98530387878418,
                -12.750219345092773,
                -3.5944550037384033
            ],
            "type" : "VEC3"
        },
        {
            "bufferView" : 7,
            "componentType" : 5126,
            "count" : 51,
            "type" : "VEC3"
        },
        {
            "bufferView" : 8,
            "componentType" : 5123,
            "count" : 51,
            "type" : "SCALAR"
        },
        {
            "bufferView" : 9,
            "componentType" : 5126,
            "count" : 39,
            "max" : [
                1.1187106370925903,
                -2.485417127609253,
                0.7912359237670898
            ],
            "min" : [
                -1.408421277999878,
                -6.410667896270752,
                -4.455564022064209
            ],
            "type" : "VEC3"
        },
        {
            "bufferView" : 10,
            "componentType" : 5126,
            "count" : 39,
            "type" : "VEC3"
        },
        {
            "bufferView" : 11,
            "componentType" : 5123,
            "count" : 39,
            "type" : "SCALAR"
        },
        {
            "bufferView" : 12,
            "componentType" : 5126,
            "count" : 36,
            "max" : [
                0.433175653219223,
                -7.655645847320557,
                -4.723264217376709
            ],
            "min" : [
                -0.7228863835334778,
                -8.609700202941895,
                -6.231701374053955
            ],
            "type" : "VEC3"
        },
        {
            "bufferView" : 13,
            "componentType" : 5126,
            "count" : 36,
            "type" : "VEC3"
        },
        {
            "bufferView" : 14,
            "componentType" : 5123,
            "count" : 36,
            "type" : "SCALAR"
        },
        {
            "bufferView" : 15,
            "componentType" : 5126,
            "count" : 39,
            "max" : [
                0.8716093301773071,
                -2.135699987411499,
                0.7912359237670898
            ],
            "min" : [
                -1.1613200902938843,
                -7.850645542144775,
                -4.803463935852051
            ],
            "type" : "VEC3"
        },
        {
            "bufferView" : 16,
            "componentType" : 5126,
            "count" : 39,
            "type" : "VEC3"
        },
        {
            "bufferView" : 17,
            "componentType" : 5126,
            "count" : 177,
            "max" : [
                8.553208351135254,
                0.006800000090152025,
                8.018698692321777
            ],
            "min" : [
                -8.98530387878418,
                -12.750219345092773,
                -5.148301124572754
            ],
            "type" : "VEC3"
        },
        {
            "bufferView" : 18,
            "componentType" : 5126,
            "count" : 177,
            "type" : "VEC3"
        },
        {
            "bufferView" : 19,
            "componentType" : 5123,
            "count" : 177,
            "type" : "SCALAR"
        },
        {
            "bufferView" : 20,
            "componentType" : 5126,
            "count" : 30,
            "max" : [
                1.1187106370925903,
                -3.5806169509887695,
                -2.3075549602508545
            ],
            "min" : [
                -1.408421277999878,
                -7.387712001800537,
                -4.617264270782471
            ],
            "type" : "VEC3"
        },
        {
            "bufferView" : 21,
            "componentType" : 5126,
            "count" : 30,
            "type" : "VEC3"
        },
        {
            "bufferView" : 22,
            "componentType" : 5123,
            "count" : 30,
            "type" : "SCALAR"
        },
        {
            "bufferView" : 23,
            "componentType" : 5126,
            "count" : 72,
            "max" : [
                0.8414450883865356,
                0.006800000090152025,
                1.2986987829208374
            ],
            "min" : [
                -1.1311558485031128,
                -2.3784000873565674,
                -1.2061011791229248
            ],
            "type" : "VEC3"
        },
        {
            "bufferView" : 24,
            "componentType" : 5126,
            "count" : 72,
            "type" : "VEC3"
        },
        {
            "bufferView" : 25,
            "componentType" : 5123,
            "count" : 72,
            "type" : "SCALAR"
        }
    ],
    "bufferViews" : [
        {
            "buffer" : 0,
            "byteLength" : 2016,
            "byteOffset" : 0
        },
        {
            "buffer" : 0,
            "byteLength" : 2016,
            "byteOffset" : 2016
        },
        {
            "buffer" : 0,
            "byteLength" : 336,
            "byteOffset" : 4032
        },
        {
            "buffer" : 0,
            "byteLength" : 2376,
            "byteOffset" : 4368
        },
        {
            "buffer" : 0,
            "byteLength" : 2376,
            "byteOffset" : 6744
        },
        {
            "buffer" : 0,
            "byteLength" : 396,
            "byteOffset" : 9120
        },
        {
            "buffer" : 0,
            "byteLength" : 612,
            "byteOffset" : 9516
        },
        {
            "buffer" : 0,
            "byteLength" : 612,
            "byteOffset" : 10128
        },
        {
            "buffer" : 0,
            "byteLength" : 102,
            "byteOffset" : 10740
        },
        {
            "buffer" : 0,
            "byteLength" : 468,
            "byteOffset" : 10844
        },
        {
            "buffer" : 0,
            "byteLength" : 468,
            "byteOffset" : 11312
        },
        {
            "buffer" : 0,
            "byteLength" : 78,
            "byteOffset" : 11780
        },
        {
            "buffer" : 0,
            "byteLength" : 432,
            "byteOffset" : 11860
        },
        {
            "buffer" : 0,
            "byteLength" : 432,
            "byteOffset" : 12292
        },
        {
            "buffer" : 0,
            "byteLength" : 72,
            "byteOffset" : 12724
        },
        {
            "buffer" : 0,
            "byteLength" : 468,
            "byteOffset" : 12796
        },
        {
            "buffer" : 0,
            "byteLength" : 468,
            "byteOffset" : 13264
        },
        {
            "buffer" : 0,
            "byteLength" : 2124,
            "byteOffset" : 13732
        },
        {
            "buffer" : 0,
            "byteLength" : 2124,
            "byteOffset" : 15856
        },
        {
            "buffer" : 0,
            "byteLength" : 354,
            "byteOffset" : 17980
        },
        {
            "buffer" : 0,
            "byteLength" : 360,
            "byteOffset" : 18336
        },
        {
            "buffer" : 0,
            "byteLength" : 360,
            "byteOffset" : 18696
        },
        {
            "buffer" : 0,
            "byteLength" : 60,
            "byteOffset" : 19056
        },
        {
            "buffer" : 0,
            "byteLength" : 864,
            "byteOffset" : 19116
        },
        {
            "buffer" : 0,
            "byteLength" : 864,
            "byteOffset" : 19980
        },
        {
            "buffer" : 0,
            "byteLength" : 144,
            "byteOffset" : 20844
        }
    ],
    "buffers" : [
        {
            "byteLength" : 20988,
            "uri" : "data:application/octet-stream;base64,"
        }
    ]
}
