<svg id="Calque_2" data-name="Calque 2" xmlns="http://www.w3.org/2000/svg" viewBox="0 0 250 275"><defs><style>.cls-1{fill:#ff8b4b;}</style></defs><title>logo</title><path class="cls-1" d="M166.79,173s43.7-5.76,64-13.2C230.75,159.81,208.66,180.16,166.79,173Z"/><path class="cls-1" d="M177.61,36.21S96.93,16.5,50.93,74.79c0,0-15.57,17.25,6.37,14.78,0,0,14.86,3.29,8.49,14.78a28.62,28.62,0,0,1-21.23-4.93C30.7,89.77,8.5,112.5,38.19,120.77c15.43,4.3,23.28,32.11,30.43,41.05,9.2,11.5,57.33,59.12,143.67,15.6,0,0-95.79,10.08-121.79-47.92C68.3,80,123.83,36.21,177.61,36.21Z"/><polyline class="cls-1" points="23.99 109.06 16.5 112.56 24.51 112.76"/><path class="cls-1" d="M94.83,82.65S117.5,47.5,170.5,46.5C170.5,46.5,114.5,64.5,94.83,82.65Z"/><path class="cls-1" d="M93.73,89.51s22.15-20.27,64-13"/><path class="cls-1" d="M74.24,219.67l-1.94,1.54a7.31,7.31,0,1,0-5.57,12,6.88,6.88,0,0,0,5.43-2.44l2,1.54a9.58,9.58,0,0,1-7.42,3.39,9.78,9.78,0,0,1,0-19.55,9.72,9.72,0,0,1,4.21.9A9.48,9.48,0,0,1,74.24,219.67Z"/><path class="cls-1" d="M99.79,232.66A9.8,9.8,0,0,1,83,225.92a9.36,9.36,0,0,1,2.9-6.93,9.73,9.73,0,0,1,13.94.18l2.72-2.53v18.51Zm-7.06-14a7.27,7.27,0,1,0,5.16,2.13A7,7,0,0,0,92.73,218.63Z"/><path class="cls-1" d="M112.58,235.15V216.64l2.12,1.72a7,7,0,0,1,5.25-2.22,7.27,7.27,0,0,1,7.38,7.38v11.63h-2.49V223.52a4.67,4.67,0,0,0-1.42-3.51,4.82,4.82,0,0,0-3.47-1.38,4.87,4.87,0,0,0-4.89,4.89v11.63Z"/><path class="cls-1" d="M140.07,219.13h-3.35v-2.49h3.35v-5.21l2.49-1.22v6.43h3.3v2.49h-3.3v16h-2.49Z"/><path class="cls-1" d="M171.41,232.66a9.8,9.8,0,0,1-16.84-6.74,9.36,9.36,0,0,1,2.9-6.93,9.73,9.73,0,0,1,13.94.18l2.72-2.53v18.51Zm-7.06-14a7.27,7.27,0,1,0,5.16,2.13A7,7,0,0,0,164.35,218.63Z"/><path class="cls-1" d="M193.88,216.59l-1.13,2.22a4.19,4.19,0,0,0-1.31-.18A4.53,4.53,0,0,0,188,220a4.69,4.69,0,0,0-1.33,3.35v11.77H184.2V216.64l2.08,1.67a6.86,6.86,0,0,1,5.16-2.17A6.32,6.32,0,0,1,193.88,216.59Z"/></svg>